<?xml version="1.0" standalone="no"?>
<!DOCTYPE svg PUBLIC "-//W3C//DTD SVG 20010904//EN"
 "http://www.w3.org/TR/2001/REC-SVG-20010904/DTD/svg10.dtd">
<svg version="1.0" xmlns="http://www.w3.org/2000/svg"
 width="112.000000pt" height="112.000000pt" viewBox="0 0 112.000000 112.000000"
 preserveAspectRatio="xMidYMid meet">

<g transform="translate(0.000000,112.000000) scale(0.100000,-0.100000)"
fill="#000000" stroke="none">
<path d="M123 1109 c-45 -13 -100 -71 -113 -119 -7 -27 -10 -178 -8 -448 3
-405 3 -407 26 -444 13 -20 40 -47 60 -60 l37 -23 431 0 430 0 41 27 c25 16
49 44 62 71 21 44 22 52 19 464 -3 416 -3 418 -26 455 -13 20 -40 47 -60 60
-37 23 -38 23 -452 25 -241 1 -429 -2 -447 -8z m856 -57 c19 -9 44 -30 55 -45
20 -28 21 -39 21 -442 0 -403 -1 -414 -21 -442 -46 -62 -50 -63 -479 -63 -429
0 -433 1 -479 63 -20 28 -21 39 -21 442 0 403 1 414 21 442 46 62 50 63 479
63 352 0 393 -2 424 -18z"/>
<path d="M212 773 l3 -138 97 0 98 0 36 36 c45 46 56 106 28 164 -28 60 -63
75 -172 75 l-93 0 3 -137z"/>
<path d="M217 493 c-4 -3 -7 -66 -7 -140 l0 -133 135 0 c115 0 137 2 142 16 4
11 -31 53 -118 140 -118 118 -137 133 -152 117z"/>
<path d="M746 278 c-11 -36 -13 -58 -6 -58 5 0 11 6 13 13 4 9 8 9 15 -1 7
-11 11 -8 16 13 4 14 4 30 1 35 -9 14 -35 12 -39 -2z m29 -8 c3 -5 1 -10 -4
-10 -6 0 -11 5 -11 10 0 6 2 10 4 10 3 0 8 -4 11 -10z"/>
<path d="M856 273 c-9 -10 -7 -53 3 -53 11 0 21 49 11 55 -4 2 -10 2 -14 -2z"/>
<path d="M804 259 c-3 -6 -1 -15 6 -19 10 -6 9 -9 -1 -13 -10 -4 -9 -6 3 -6
21 -1 32 15 17 25 -8 4 -7 9 2 15 11 7 10 9 -3 9 -9 0 -20 -5 -24 -11z"/>
</g>
</svg>
