<svg width="81" height="27" viewBox="0 0 81 27" fill="none" xmlns="http://www.w3.org/2000/svg">
<path d="M13.4473 25.8773C20.3217 25.8773 25.8945 20.3083 25.8945 13.4386C25.8945 6.56896 20.3217 1 13.4473 1C6.57283 1 1 6.56896 1 13.4386C1 20.3083 6.57283 25.8773 13.4473 25.8773Z" stroke="#E81C39" stroke-miterlimit="10"/>
<path d="M19.6329 11.3126L19.5847 11.4155C19.5619 11.4523 19.5347 11.4861 19.5036 11.5162L19.359 11.652L19.2998 11.8447C18.0225 16.2719 15.4195 18.7263 10.6146 20.0619L10.5269 20.086L10.4831 20.005C10.3014 19.6815 10.0807 19.3814 9.82581 19.1117L9.69435 18.9715L9.87839 18.9234C13.7784 17.949 16.2324 16.077 17.4134 13.1649L17.8121 12.1709H7.29517V10.8703H18.3533L18.5417 10.7587L19.6329 11.3126Z" fill="#E81C39"/>
<path d="M18.1035 6.81317H8.83765V8.0809H18.1035V6.81317Z" fill="#E81C39"/>
<path d="M67.5837 25.8773C74.4582 25.8773 80.031 20.3083 80.031 13.4386C80.031 6.56896 74.4582 1 67.5837 1C60.7093 1 55.1365 6.56896 55.1365 13.4386C55.1365 20.3083 60.7093 25.8773 67.5837 25.8773Z" stroke="#E81C39" stroke-miterlimit="10"/>
<path d="M74.3107 10.1544L74.2494 10.2573C74.2164 10.3085 74.1749 10.3537 74.1267 10.3908L73.9733 10.5025L73.8966 10.6755C73.5723 11.4243 72.3804 13.9795 70.6626 15.6391L70.5947 15.7004L70.518 15.6479C70.2176 15.4419 69.9052 15.254 69.5825 15.0852L69.4357 15.0107L69.5562 14.9012C70.2525 14.2582 70.8558 13.5213 71.3484 12.7117L72.3169 11.1681L66.3814 12.7161V16.7339C66.3814 18.0476 67.0671 18.7044 68.476 18.7044H71.0592C71.8447 18.688 72.6288 18.6295 73.408 18.5293L73.5351 18.5161V18.6453C73.5351 19.0022 73.5526 19.4423 73.5679 19.7401V19.8452L73.4672 19.8605C72.8537 19.9371 71.7494 19.9853 71.103 19.9853H68.4519C66.8831 19.9853 65.012 19.4248 65.012 16.7492V13.0642L61.044 14.0824L60.7219 12.8037L65.012 11.733V6.88544L66.7977 6.95769L66.7736 7.08468C66.7593 7.1889 66.7079 7.28449 66.6289 7.35399L66.377 7.57294V11.3783L72.926 9.6902L73.1451 9.53693L74.3107 10.1544Z" fill="#E81C39"/>
<path d="M40.5159 25.8773C47.3903 25.8773 52.9631 20.3083 52.9631 13.4386C52.9631 6.56896 47.3903 1 40.5159 1C33.6414 1 28.0686 6.56896 28.0686 13.4386C28.0686 20.3083 33.6414 25.8773 40.5159 25.8773Z" stroke="#E81C39" stroke-miterlimit="10"/>
<path d="M45.4346 8.68081L45.1892 8.75307H40.1498L40.8641 7.16567L41.1358 7.05401C41.1869 7.03107 41.2328 6.99785 41.2705 6.95641C41.3082 6.91497 41.3369 6.8662 41.3549 6.81316L41.3987 6.69274L39.67 6.29205L39.6371 6.38839C38.6862 9.09463 36.6924 11.9454 34.681 13.4846L34.5496 13.5809L34.6898 13.6663C34.997 13.882 35.2898 14.1175 35.5662 14.3714L35.6429 14.4392L35.7108 14.3801C36.0154 14.1349 36.3155 13.859 36.6179 13.5656L36.7778 13.4014C36.7778 13.4014 36.8173 13.3642 36.8501 13.3292L36.894 13.2854C37.5375 12.5798 38.1417 11.8394 38.7038 11.0674L38.7279 11.0389V11.028C38.8878 10.7981 39.028 10.5901 39.1661 10.3711L39.3852 10.0339H44.5779L44.2142 11.0302C44.1266 11.2491 44.0411 11.4681 43.9491 11.687C43.7194 12.223 43.4598 12.7457 43.1713 13.2525C43.1512 13.2948 43.1286 13.3357 43.1034 13.3751L42.7659 13.9663L42.1393 13.6817C41.7858 13.505 41.4433 13.3416 41.1117 13.1912C40.8751 13.4999 40.5705 13.8809 40.2572 14.2509C40.5464 14.3867 40.8444 14.5312 41.149 14.6888L41.9706 15.1092L41.3659 15.8077C40.0077 17.3807 38.3322 18.6492 36.4492 19.5299L36.2564 19.6218L36.4382 19.7335C36.7604 19.9464 37.0429 20.2139 37.273 20.5239L37.3278 20.6071L37.4132 20.5633L37.6126 20.4626C39.6041 19.4699 41.3512 18.0492 42.7287 16.3025L43.1384 15.7858L43.6927 16.1492C44.2668 16.5193 44.7357 16.8433 45.0687 17.1083L45.1695 17.1805L45.9561 15.9412L45.875 15.8778C45.4938 15.6041 45.0293 15.2888 44.5275 14.98L43.9338 14.6144L44.2821 14.0079C45.0448 12.6469 45.6596 11.2082 46.116 9.71646L46.1686 9.53911L46.3045 9.4143C46.349 9.37128 46.3789 9.31538 46.3899 9.25447L46.4096 9.16689L45.4346 8.68081Z" fill="#E81C39"/>
</svg>
