<svg width="556" height="207" viewBox="0 0 556 207" fill="none" xmlns="http://www.w3.org/2000/svg">
<path d="M145.37 22.3499C150.577 22.3552 155.57 24.4261 159.252 28.1082C162.934 31.7903 165.005 36.7827 165.01 41.9899V158.99C165.005 164.197 162.934 169.19 159.252 172.872C155.57 176.554 150.577 178.625 145.37 178.63H28.37C23.1645 178.63 18.1715 176.566 14.4859 172.889C10.8004 169.213 8.72324 164.225 8.71 159.02V42.0199C8.71529 36.8144 10.7848 31.8235 14.4647 28.1417C18.1446 24.4599 23.1345 22.3879 28.34 22.3799H145.34L145.37 22.3499ZM145.34 13.6799H28.34C20.8238 13.6799 13.6154 16.6658 8.30059 21.9805C2.98581 27.2953 0 34.5037 0 42.0199V159.02C0 166.536 2.98581 173.745 8.30059 179.059C13.6154 184.374 20.8238 187.36 28.34 187.36H145.34C149.065 187.365 152.755 186.636 156.198 185.214C159.641 183.792 162.769 181.706 165.405 179.074C168.041 176.441 170.132 173.315 171.559 169.874C172.986 166.433 173.72 162.745 173.72 159.02V42.0199C173.72 38.2974 172.987 34.6114 171.562 31.1724C170.137 27.7334 168.049 24.6087 165.416 21.977C162.783 19.3452 159.658 17.258 156.218 15.8343C152.779 14.4107 149.092 13.6786 145.37 13.6799H145.34Z" fill="white"/>
<path d="M72.6798 155.34H36.4598C35.2849 155.34 34.1581 154.873 33.3273 154.042C32.4965 153.212 32.0298 152.085 32.0298 150.91V114.68C32.0308 113.804 32.2911 112.949 32.778 112.221C33.2648 111.494 33.9563 110.927 34.7652 110.592C35.574 110.257 36.464 110.169 37.3227 110.34C38.1814 110.51 38.9703 110.931 39.5898 111.55L75.8198 147.77C76.4424 148.39 76.8667 149.18 77.0389 150.042C77.2111 150.903 77.1234 151.796 76.7868 152.607C76.4503 153.419 75.8801 154.112 75.1489 154.598C74.4176 155.085 73.5581 155.343 72.6798 155.34V155.34Z" fill="white"/>
<path d="M77.1798 68.22C77.1811 71.1856 76.5979 74.1224 75.4637 76.8626C74.3294 79.6027 72.6662 82.0924 70.5692 84.1894C68.4722 86.2864 65.9825 87.9496 63.2423 89.0839C60.5022 90.2182 57.5654 90.8013 54.5998 90.8H36.4598C35.2849 90.8 34.1581 90.3333 33.3273 89.5025C32.4965 88.6717 32.0298 87.5449 32.0298 86.37V50.07C32.0298 48.8951 32.4965 47.7683 33.3273 46.9375C34.1581 46.1067 35.2849 45.64 36.4598 45.64H54.5998C57.5654 45.6387 60.5022 46.2218 63.2423 47.3561C65.9825 48.4904 68.4722 50.1536 70.5692 52.2506C72.6662 54.3476 74.3294 56.8373 75.4637 59.5775C76.5979 62.3176 77.1811 65.2544 77.1798 68.22V68.22Z" fill="white"/>
<path d="M129.16 149.97C130.06 150.42 131.16 151.03 131.16 152.29C131.16 154.29 129.44 155.34 127.04 155.29C126.073 155.314 125.118 155.072 124.28 154.59L124.96 152.59C125.695 152.945 126.494 153.149 127.31 153.19C127.89 153.19 128.13 152.96 128.13 152.69C128.13 152.42 127.87 152.15 127.13 151.82C126.13 151.36 125.26 150.66 125.26 149.56C125.26 147.72 126.89 146.56 129.21 146.56C130.011 146.53 130.808 146.684 131.54 147.01L130.88 149.01C130.317 148.771 129.711 148.649 129.1 148.65C128.54 148.65 128.19 148.83 128.19 149.17C128.19 149.51 128.51 149.68 129.16 149.97Z" fill="white"/>
<path d="M136.35 152.88H137.03L136.65 155.14C136.13 155.292 135.591 155.363 135.05 155.35C133.47 155.35 132.68 154.6 132.68 153.47C132.687 152.949 132.744 152.43 132.85 151.92L133.43 148.98H132.43L132.86 146.78H133.86L134.15 145.21L137.15 144.4L136.71 146.78H138.41L137.98 148.98H136.28L135.8 151.29C135.734 151.62 135.694 151.954 135.68 152.29C135.66 152.6 135.82 152.88 136.35 152.88Z" fill="white"/>
<path d="M139.73 155.3C139.519 155.307 139.31 155.271 139.115 155.192C138.919 155.114 138.743 154.996 138.596 154.845C138.449 154.694 138.335 154.515 138.262 154.318C138.188 154.12 138.157 153.91 138.17 153.7C138.159 153.441 138.201 153.183 138.292 152.941C138.384 152.698 138.524 152.477 138.703 152.29C138.882 152.103 139.098 151.955 139.336 151.853C139.574 151.752 139.831 151.7 140.09 151.7C140.305 151.691 140.519 151.728 140.719 151.807C140.919 151.886 141.101 152.006 141.251 152.16C141.402 152.314 141.519 152.497 141.595 152.699C141.67 152.9 141.702 153.115 141.69 153.33C141.706 153.592 141.666 153.854 141.573 154.1C141.48 154.346 141.337 154.569 141.152 154.755C140.967 154.941 140.744 155.086 140.499 155.18C140.254 155.274 139.992 155.315 139.73 155.3Z" fill="white"/>
<path d="M124.36 146.57C124.372 146.072 124.243 145.581 123.986 145.154C123.729 144.727 123.356 144.382 122.91 144.16C121.924 143.732 120.853 143.537 119.78 143.59C118.666 143.569 117.552 143.669 116.46 143.89L114.31 155.15H117.19L118.01 150.82H118.53C119.42 150.82 119.86 151.15 119.96 152.46C120.02 153.364 120.141 154.262 120.32 155.15H123.32C123.081 154.063 122.921 152.96 122.84 151.85C122.855 151.459 122.772 151.071 122.597 150.722C122.422 150.372 122.162 150.072 121.84 149.85V149.78C122.56 149.607 123.201 149.195 123.658 148.613C124.115 148.03 124.363 147.311 124.36 146.57V146.57ZM119.36 148.66H118.45L118.98 145.92C119.261 145.875 119.546 145.858 119.83 145.87C120.67 145.87 121.38 146.21 121.38 147.01C121.34 148.01 120.46 148.66 119.32 148.66H119.36Z" fill="white"/>
<path d="M458.18 104.48C465.18 107.93 473.83 112.7 473.83 122.48C473.83 137.86 460.43 146.22 441.73 146.09C432.98 145.82 424.49 143.83 420.25 140.65L425.55 125.13C429.55 126.99 437.09 129.78 443.86 129.78C448.37 129.78 450.22 128.05 450.22 125.93C450.22 123.54 448.22 121.68 442.53 119.17C435.1 115.58 427.94 110.17 427.94 101.53C427.94 87.1999 440.67 78.0499 458.71 78.0499C467.07 78.0499 473.3 79.6399 476.88 81.4999L471.71 97.2799C467.348 95.4194 462.652 94.47 457.91 94.4899C453.54 94.4899 450.75 95.8199 450.75 98.4899C450.75 100.22 453.14 102.22 458.18 104.48Z" fill="white"/>
<path d="M514.14 127.16C515.73 127.16 517.58 127.16 519.45 127.03L516.53 144.67C513.74 145.73 508.43 146.26 504.06 146.26C491.72 146.26 485.62 140.43 485.62 131.67C485.679 127.614 486.124 123.572 486.95 119.6L491.46 96.66H483.46L486.82 79.55H494.82L497.08 67.35L520.29 60.98L516.82 79.55H530.09L526.77 96.66H513.47L509.76 114.66C509.261 117.106 508.95 119.587 508.83 122.08C508.82 124.91 510.03 127.16 514.14 127.16Z" fill="white"/>
<path d="M540.52 145.99C533.23 145.99 528.32 140.82 528.32 133.53C528.32 125.31 534.42 118.14 543.32 118.14C550.61 118.14 555.79 123.31 555.79 130.87C555.82 139.89 549.41 145.99 540.52 145.99Z" fill="white"/>
<path d="M420.82 77.96C420.82 68.67 415.91 62.7 409.55 59.26C402.65 55.54 393.36 54.75 385.14 54.75C375.33 54.75 365.51 55.54 359.28 57.13L342.57 144.8H364.98L371.35 111.11H375.46C382.36 111.11 385.8 113.63 386.6 123.85C387.66 135.25 388.6 142.15 389.38 144.8H412.6C410.87 141.09 410.07 128.09 408.88 119.07C407.95 111.38 405.88 105.94 400.88 103.42L401.02 102.89C412.57 98.91 420.82 91.22 420.82 77.96ZM381.56 94.27H374.56L378.67 72.92C380.863 72.5882 383.082 72.4543 385.3 72.52C391.8 72.52 397.37 75.18 397.37 81.41C397.31 89.22 390.41 94.27 381.53 94.27H381.56Z" fill="white"/>
<path d="M268.01 0V206.44" stroke="white" stroke-width="1.86" stroke-miterlimit="10"/>
</svg>
